# xmcd
#
# Track frame offsets: 
#        150
#        19742
#        40297
#        68337
#        79745
#        96345
#        122257
#        131872
#        159947
#        202730
#        226655
#        254077
#        273697
#        290187
#
# Disc length: 4077 seconds
#
# Revision: 7
# Processed by: cddbd v1.5.1PL0 Copyright (c) Steve Scherf et al.
# Submitted via: ExactAudioCopy v0.95b2
#
DISCID=bf0feb0e
DTITLE=Son House - The Original Delta Blues
DYEAR=1998
DGENRE=Blues
TTITLE0=Death Letter
TTITLE1=Pearline
TTITLE2=Louise McGhee
TTITLE3=John The Revelator
TTITLE4=Empire State Express
TTITLE5=Preachin' Blues
TTITLE6=Grinnin' In Your Face
TTITLE7=Sundown
TTITLE8=Levee Camp Moan
TTITLE9=Pony Blues
TTITLE10=Downhearted Blues
TTITLE11=Motherless Children 
TTITLE12=President Kennedy
TTITLE13=Yonder Comes My Mother
EXTD=YEAR: 1965 ID3G:   0
EXTT0=
EXTT1=
EXTT2=
EXTT3=
EXTT4=
EXTT5=
EXTT6=
EXTT7=
EXTT8=
EXTT9=
EXTT10=
EXTT11=
EXTT12=
EXTT13=
PLAYORDER=
